<svg id="svg" version="1.1" xmlns="http://www.w3.org/2000/svg" xmlns:xlink="http://www.w3.org/1999/xlink" width="400" height="551.4563106796116" viewBox="0, 0, 400,551.4563106796116"><g id="svgg"><path id="path0" d="M163.823 56.089 C 163.034 57.215,163.038 59.082,163.844 64.816 C 166.186 81.483,161.808 101.159,151.948 118.281 C 143.541 132.878,135.713 143.750,121.474 160.600 C 119.243 163.240,116.075 167.020,114.433 169.000 C 112.791 170.980,109.996 174.220,108.221 176.200 C 106.446 178.180,103.647 181.420,102.000 183.400 C 100.353 185.380,97.655 188.541,96.003 190.424 C 85.656 202.224,71.490 220.501,66.726 228.200 C 65.501 230.180,62.753 234.578,60.620 237.973 C 54.682 247.422,52.155 252.478,44.595 270.041 C 41.095 278.172,35.821 295.448,32.603 309.325 C 28.861 325.460,29.415 368.794,33.566 384.726 C 40.294 410.548,41.875 414.731,52.382 434.536 C 57.298 443.801,58.369 445.520,62.761 451.191 C 64.433 453.349,67.954 457.968,70.586 461.457 C 78.987 472.591,97.066 488.957,109.864 497.012 C 114.236 499.764,135.327 510.405,138.600 511.510 C 139.920 511.956,144.150 513.322,148.000 514.546 C 151.850 515.770,156.710 517.318,158.800 517.986 C 165.149 520.014,171.541 520.964,188.600 522.413 C 200.820 523.451,224.552 521.791,234.600 519.195 C 267.260 510.758,290.772 497.485,315.306 473.637 C 341.570 448.107,361.857 405.033,364.993 368.142 C 367.073 343.657,367.073 343.665,365.606 329.800 C 365.187 325.840,364.646 320.440,364.404 317.800 C 363.881 312.096,363.211 308.847,361.391 303.200 C 360.647 300.890,359.395 296.300,358.608 293.000 C 355.568 280.246,354.207 276.530,344.394 254.200 C 342.279 249.388,339.739 244.806,333.199 234.000 C 326.919 223.625,324.132 219.645,316.388 210.000 C 313.827 206.810,310.493 202.580,308.978 200.600 C 307.464 198.620,303.862 194.210,300.974 190.800 C 298.086 187.390,293.671 182.064,291.162 178.965 C 284.452 170.675,279.921 165.250,275.179 159.827 C 262.205 144.991,246.238 120.919,241.068 108.400 C 234.460 92.399,232.800 83.130,234.046 69.200 C 235.109 57.307,234.681 54.986,231.618 56.054 C 224.735 58.453,218.661 76.750,218.690 95.000 C 218.735 123.358,226.661 148.540,243.930 175.184 C 251.407 186.720,252.989 189.224,259.636 200.038 C 263.097 205.668,267.320 212.868,269.020 216.038 C 270.720 219.207,272.826 223.036,273.701 224.547 C 278.765 233.298,288.435 253.953,292.079 263.800 C 296.694 276.273,301.735 294.593,302.754 302.600 C 305.411 323.468,304.443 343.826,300.207 356.200 C 299.679 357.740,298.527 361.430,297.646 364.400 C 289.954 390.333,272.319 413.100,248.207 428.229 C 241.052 432.718,226.776 438.714,220.757 439.758 C 194.330 444.342,168.667 439.583,149.274 426.503 C 129.469 413.144,115.515 396.182,106.056 373.966 C 103.652 368.320,98.167 349.685,97.647 345.400 C 94.794 321.853,96.527 298.859,102.605 279.616 C 103.372 277.187,104.629 273.210,105.397 270.778 C 111.601 251.135,125.981 222.245,144.410 192.400 C 146.244 189.430,149.396 184.300,151.413 181.000 C 153.431 177.700,156.478 172.840,158.185 170.200 C 174.321 145.242,182.477 111.084,179.220 82.097 C 177.533 67.077,167.727 50.515,163.823 56.089 " stroke="none" fill="#469b96" fill-rule="evenodd"></path><path id="path1" d="M0.000 275.600 L 0.000 551.200 200.000 551.200 L 400.000 551.200 400.000 275.600 L 400.000 0.000 200.000 0.000 L 0.000 0.000 0.000 275.600 M168.472 56.399 C 180.182 66.051,183.305 98.619,175.560 130.328 C 172.766 141.767,164.905 159.806,158.185 170.200 C 156.478 172.840,153.431 177.700,151.413 181.000 C 149.396 184.300,146.244 189.430,144.410 192.400 C 125.981 222.245,111.601 251.135,105.397 270.778 C 104.629 273.210,103.372 277.187,102.605 279.616 C 96.527 298.859,94.794 321.853,97.647 345.400 C 98.167 349.685,103.652 368.320,106.056 373.966 C 115.515 396.182,129.469 413.144,149.274 426.503 C 168.667 439.583,194.330 444.342,220.757 439.758 C 226.776 438.714,241.052 432.718,248.207 428.229 C 272.319 413.100,289.954 390.333,297.646 364.400 C 298.527 361.430,299.679 357.740,300.207 356.200 C 304.443 343.826,305.411 323.468,302.754 302.600 C 301.735 294.593,296.694 276.273,292.079 263.800 C 288.435 253.953,278.765 233.298,273.701 224.547 C 272.826 223.036,270.720 219.207,269.020 216.038 C 267.320 212.868,263.097 205.668,259.636 200.038 C 252.989 189.224,251.407 186.720,243.930 175.184 C 226.661 148.540,218.735 123.358,218.690 95.000 C 218.661 76.750,224.735 58.453,231.618 56.054 C 234.681 54.986,235.109 57.307,234.046 69.200 C 232.800 83.130,234.460 92.399,241.068 108.400 C 246.238 120.919,262.205 144.991,275.179 159.827 C 279.921 165.250,284.452 170.675,291.162 178.965 C 293.671 182.064,298.086 187.390,300.974 190.800 C 303.862 194.210,307.464 198.620,308.978 200.600 C 310.493 202.580,313.827 206.810,316.388 210.000 C 324.132 219.645,326.919 223.625,333.199 234.000 C 339.739 244.806,342.279 249.388,344.394 254.200 C 354.207 276.530,355.568 280.246,358.608 293.000 C 359.395 296.300,360.647 300.890,361.391 303.200 C 363.211 308.847,363.881 312.096,364.404 317.800 C 364.646 320.440,365.187 325.840,365.606 329.800 C 367.073 343.665,367.073 343.657,364.993 368.142 C 361.857 405.033,341.570 448.107,315.306 473.637 C 290.772 497.485,267.260 510.758,234.600 519.195 C 224.552 521.791,200.820 523.451,188.600 522.413 C 171.541 520.964,165.149 520.014,158.800 517.986 C 156.710 517.318,151.850 515.770,148.000 514.546 C 144.150 513.322,139.920 511.956,138.600 511.510 C 135.327 510.405,114.236 499.764,109.864 497.012 C 97.066 488.957,78.987 472.591,70.586 461.457 C 67.954 457.968,64.433 453.349,62.761 451.191 C 58.369 445.520,57.298 443.801,52.382 434.536 C 41.875 414.731,40.294 410.548,33.566 384.726 C 29.415 368.794,28.861 325.460,32.603 309.325 C 35.821 295.448,41.095 278.172,44.595 270.041 C 52.155 252.478,54.682 247.422,60.620 237.973 C 62.753 234.578,65.501 230.180,66.726 228.200 C 71.490 220.501,85.656 202.224,96.003 190.424 C 97.655 188.541,100.353 185.380,102.000 183.400 C 103.647 181.420,106.446 178.180,108.221 176.200 C 109.996 174.220,112.791 170.980,114.433 169.000 C 116.075 167.020,119.243 163.240,121.474 160.600 C 135.713 143.750,143.541 132.878,151.948 118.281 C 161.808 101.159,166.186 81.483,163.844 64.816 C 162.544 55.561,164.076 52.775,168.472 56.399 " stroke="none" fill="#04040b" fill-rule="evenodd"></path></g></svg>