<?xml version="1.0" encoding="UTF-8"?>
<svg xmlns="http://www.w3.org/2000/svg" xmlns:xlink="http://www.w3.org/1999/xlink" width="150px" height="150px" viewBox="0 0 150 150" version="1.1">
<g id="surface1">
<path style=" stroke:none;fill-rule:evenodd;fill:rgb(27.450982%,60.784316%,58.823532%);fill-opacity:1;" d="M 61.433594 15.269531 C 61.136719 15.574219 61.140625 16.085938 61.441406 17.644531 C 62.320312 22.183594 60.679688 27.539062 56.980469 32.199219 C 53.828125 36.171875 50.890625 39.132812 45.554688 43.71875 C 44.714844 44.4375 43.527344 45.46875 42.914062 46.007812 C 42.296875 46.546875 41.25 47.429688 40.582031 47.96875 C 39.917969 48.507812 38.867188 49.386719 38.25 49.925781 C 37.632812 50.464844 36.621094 51.328125 36 51.839844 C 32.121094 55.050781 26.808594 60.027344 25.023438 62.125 C 24.5625 62.664062 23.53125 63.859375 22.734375 64.785156 C 20.503906 67.355469 19.558594 68.734375 16.722656 73.515625 C 15.410156 75.726562 13.433594 80.429688 12.226562 84.207031 C 10.824219 88.601562 11.03125 100.398438 12.585938 104.734375 C 15.109375 111.765625 15.703125 112.902344 19.644531 118.292969 C 21.488281 120.816406 21.886719 121.285156 23.535156 122.828125 C 24.164062 123.417969 25.484375 124.671875 26.46875 125.625 C 29.621094 128.65625 36.398438 133.109375 41.199219 135.300781 C 42.839844 136.050781 50.746094 138.949219 51.976562 139.25 C 52.46875 139.371094 54.054688 139.742188 55.5 140.074219 C 56.945312 140.410156 58.765625 140.832031 59.550781 141.011719 C 61.929688 141.566406 64.328125 141.824219 70.726562 142.21875 C 75.308594 142.5 84.207031 142.046875 87.976562 141.339844 C 100.222656 139.042969 109.039062 135.429688 118.238281 128.9375 C 128.089844 121.988281 135.695312 110.261719 136.871094 100.21875 C 137.652344 93.554688 137.652344 93.558594 137.101562 89.78125 C 136.945312 88.703125 136.742188 87.234375 136.652344 86.515625 C 136.457031 84.960938 136.203125 84.078125 135.523438 82.539062 C 135.242188 81.910156 134.773438 80.664062 134.476562 79.765625 C 133.339844 76.292969 132.828125 75.28125 129.148438 69.203125 C 128.355469 67.890625 127.402344 66.644531 124.949219 63.703125 C 122.59375 60.878906 121.550781 59.792969 118.644531 57.167969 C 117.683594 56.300781 116.433594 55.148438 115.867188 54.609375 C 115.300781 54.070312 113.949219 52.871094 112.867188 51.941406 C 111.78125 51.011719 110.125 49.5625 109.1875 48.71875 C 106.667969 46.464844 104.96875 44.988281 103.191406 43.511719 C 98.328125 39.472656 92.339844 32.917969 90.402344 29.511719 C 87.921875 25.152344 87.300781 22.628906 87.765625 18.839844 C 88.164062 15.601562 88.003906 14.96875 86.855469 15.257812 C 84.277344 15.914062 81.996094 20.894531 82.007812 25.863281 C 82.027344 33.582031 84.996094 40.4375 91.472656 47.691406 C 94.277344 50.832031 94.871094 51.511719 97.363281 54.457031 C 98.660156 55.988281 100.246094 57.949219 100.882812 58.8125 C 101.519531 59.675781 102.308594 60.71875 102.636719 61.128906 C 104.535156 63.511719 108.164062 69.132812 109.53125 71.816406 C 111.261719 75.210938 113.152344 80.199219 113.53125 82.378906 C 114.527344 88.058594 114.167969 93.601562 112.578125 96.96875 C 112.378906 97.386719 111.949219 98.394531 111.617188 99.203125 C 108.734375 106.261719 102.121094 112.460938 93.078125 116.578125 C 90.394531 117.800781 85.039062 119.433594 82.785156 119.714844 C 72.875 120.964844 63.25 119.667969 55.976562 116.109375 C 48.550781 112.472656 43.316406 107.855469 39.769531 101.804688 C 38.871094 100.269531 36.8125 95.195312 36.617188 94.027344 C 35.546875 87.617188 36.199219 81.359375 38.476562 76.121094 C 38.765625 75.460938 39.234375 74.375 39.523438 73.714844 C 41.851562 68.367188 47.242188 60.503906 54.152344 52.378906 C 54.839844 51.570312 56.023438 50.171875 56.78125 49.273438 C 57.535156 48.375 58.679688 47.050781 59.320312 46.332031 C 65.371094 39.539062 68.429688 30.242188 67.207031 22.347656 C 66.574219 18.261719 62.898438 13.75 61.433594 15.269531 "/>
<path style=" stroke:none;fill-rule:evenodd;fill:rgb(1.568628%,1.568628%,4.313726%);fill-opacity:1;" d="M 0 75.027344 L 0 150.054688 L 150 150.054688 L 150 0 L 0 0 L 0 75.027344 M 63.175781 15.355469 C 67.566406 17.980469 68.738281 26.847656 65.835938 35.480469 C 64.789062 38.59375 61.839844 43.503906 59.320312 46.332031 C 58.679688 47.050781 57.535156 48.375 56.78125 49.273438 C 56.023438 50.171875 54.839844 51.570312 54.152344 52.378906 C 47.242188 60.503906 41.851562 68.367188 39.523438 73.714844 C 39.234375 74.375 38.765625 75.460938 38.476562 76.121094 C 36.199219 81.359375 35.546875 87.617188 36.617188 94.027344 C 36.8125 95.195312 38.871094 100.269531 39.769531 101.804688 C 43.316406 107.855469 48.550781 112.472656 55.976562 116.109375 C 63.25 119.667969 72.875 120.964844 82.785156 119.714844 C 85.039062 119.433594 90.394531 117.800781 93.078125 116.578125 C 102.121094 112.460938 108.734375 106.261719 111.617188 99.203125 C 111.949219 98.394531 112.378906 97.386719 112.578125 96.96875 C 114.167969 93.601562 114.527344 88.058594 113.53125 82.378906 C 113.152344 80.199219 111.261719 75.210938 109.53125 71.816406 C 108.164062 69.132812 104.535156 63.511719 102.636719 61.128906 C 102.308594 60.71875 101.519531 59.675781 100.882812 58.8125 C 100.246094 57.949219 98.660156 55.988281 97.363281 54.457031 C 94.871094 51.511719 94.277344 50.832031 91.472656 47.691406 C 84.996094 40.4375 82.027344 33.582031 82.007812 25.863281 C 81.996094 20.894531 84.277344 15.914062 86.855469 15.257812 C 88.003906 14.96875 88.164062 15.601562 87.765625 18.839844 C 87.300781 22.628906 87.921875 25.152344 90.402344 29.511719 C 92.339844 32.917969 98.328125 39.472656 103.191406 43.511719 C 104.96875 44.988281 106.667969 46.464844 109.1875 48.71875 C 110.125 49.5625 111.78125 51.011719 112.867188 51.941406 C 113.949219 52.871094 115.300781 54.070312 115.867188 54.609375 C 116.433594 55.148438 117.683594 56.300781 118.644531 57.167969 C 121.550781 59.792969 122.59375 60.878906 124.949219 63.703125 C 127.402344 66.644531 128.355469 67.890625 129.148438 69.203125 C 132.828125 75.28125 133.339844 76.292969 134.476562 79.765625 C 134.773438 80.664062 135.242188 81.910156 135.523438 82.539062 C 136.203125 84.078125 136.457031 84.960938 136.652344 86.515625 C 136.742188 87.234375 136.945312 88.703125 137.101562 89.78125 C 137.652344 93.558594 137.652344 93.554688 136.871094 100.21875 C 135.695312 110.261719 128.089844 121.988281 118.238281 128.9375 C 109.039062 135.429688 100.222656 139.042969 87.976562 141.339844 C 84.207031 142.046875 75.308594 142.5 70.726562 142.21875 C 64.328125 141.824219 61.929688 141.566406 59.550781 141.011719 C 58.765625 140.832031 56.945312 140.410156 55.5 140.074219 C 54.054688 139.742188 52.46875 139.371094 51.976562 139.25 C 50.746094 138.949219 42.839844 136.050781 41.199219 135.300781 C 36.398438 133.109375 29.621094 128.65625 26.46875 125.625 C 25.484375 124.671875 24.164062 123.417969 23.535156 122.828125 C 21.886719 121.285156 21.488281 120.816406 19.644531 118.292969 C 15.703125 112.902344 15.109375 111.765625 12.585938 104.734375 C 11.03125 100.398438 10.824219 88.601562 12.226562 84.207031 C 13.433594 80.429688 15.410156 75.726562 16.722656 73.515625 C 19.558594 68.734375 20.503906 67.355469 22.734375 64.785156 C 23.53125 63.859375 24.5625 62.664062 25.023438 62.125 C 26.808594 60.027344 32.121094 55.050781 36 51.839844 C 36.621094 51.328125 37.632812 50.464844 38.25 49.925781 C 38.867188 49.386719 39.917969 48.507812 40.582031 47.96875 C 41.25 47.429688 42.296875 46.546875 42.914062 46.007812 C 43.527344 45.46875 44.714844 44.4375 45.554688 43.71875 C 50.890625 39.132812 53.828125 36.171875 56.980469 32.199219 C 60.679688 27.539062 62.320312 22.183594 61.441406 17.644531 C 60.953125 15.125 61.527344 14.367188 63.175781 15.355469 "/>
</g>
</svg>
